<?xml version="1.0" encoding="utf-8"?>
<!-- Generator: Adobe Illustrator 23.0.5, SVG Export Plug-In . SVG Version: 6.00 Build 0)  -->
<svg version="1.1" id="Layer_1" xmlns="http://www.w3.org/2000/svg" xmlns:xlink="http://www.w3.org/1999/xlink" x="0px" y="0px"
	 viewBox="0 0 1468 413" style="enable-background:new 0 0 1468 413;" xml:space="preserve">
<style type="text/css">
	.st0{fill:#191617;}
	.st1{fill:#F5274D;}
</style>
<path class="st0" d="M374.5,99.6c15.5,16.9,23.3,39.9,23.3,68.8v127.8h-86.4V179.3c0-9.4-2.8-16.7-8.4-22.1c-5.6-5.3-13.1-8-22.5-8
	c-9.6,0-17.2,2.7-22.7,8c-5.5,5.3-8.2,12.7-8.2,22.1v116.8h-86.4V179.3c0-9.4-2.8-16.7-8.4-22.1c-5.6-5.3-13.1-8-22.5-8
	c-9.6,0-17.2,2.7-22.7,8c-5.5,5.3-8.2,12.7-8.2,22.1v116.8H14.9V75.7h57c16.4,0,29.7,13.3,29.7,29.7v0c6.3-9.4,14.8-16.9,25.6-22.7
	c10.8-5.7,23.5-8.6,38.1-8.6c15.9,0,30,3.5,42.2,10.4c12.2,6.9,22,16.6,29.3,29.1c8.1-11.5,18.4-20.9,30.9-28.3
	c12.5-7.4,26.3-11.1,41.4-11.1C337.2,74.2,359,82.6,374.5,99.6z"/>
<path class="st0" d="M646.7,201.2H508c0.8,10.9,3.3,18.4,7.4,22.5c4.2,4,9.6,6.1,16.4,6.1c9.4,0,16.1-4.3,20.3-12.9h91.8
	c-3.1,15.6-9.7,29.6-19.7,42c-10,12.4-22.7,22.1-37.9,29.3c-15.2,7.2-32,10.7-50.2,10.7c-21.9,0-41.4-4.6-58.4-13.7
	c-17.1-9.1-30.3-22.2-39.9-39.3c-9.5-17.1-14.3-37.1-14.3-60c0-22.9,4.7-42.9,14.3-60c9.5-17.1,22.8-30.1,39.9-39.3
	c17.1-9.1,36.5-13.7,58.4-13.7c21.9,0,41.4,4.5,58.4,13.5c17.1,9,30.3,21.8,39.9,38.5c9.5,16.7,14.3,36.3,14.3,59
	C648.6,189.4,648,195.2,646.7,201.2z M560.7,165.6c0-8.3-2.3-14.5-7-18.6c-4.7-4-10.5-6.1-17.6-6.1c-15.9,0-25,8.2-27.4,24.6H560.7z
	"/>
<path class="st0" d="M1064.8,7v289.1H978V7H1064.8z"/>
<path class="st1" d="M958.5,296.1L857.7,19.5h-100L656.4,296.1h88l-17.1-41.5h8.4c2-3.3,5.5-5.6,9.6-5.7
	c-1.7-10.5,6.5-19.6,16.7-19.6c3.4,0,6.6,1,9.2,2.8c3-3,7.2-4.6,11.7-4c1.3-4.4,5.3-7.7,10.1-7.8c4.3-0.1,8,2.3,9.8,5.9
	c4.7-1.5,9.6-0.9,13.7,1.5c2.1-2.3,5.1-3.7,8.4-3.7c5.3,0,9.7,3.5,11.1,8.3c3.5-0.1,6.7,1,9.2,3c2.5-3,6.5-4.5,10.6-3.6
	c5.9,1.3,9.7,7.2,8.1,13.3c6.7-0.2,12.8,3.7,15.6,9.6h8.8l-17.1,41.5H958.5z M821.4,171.2c0,0,0.5-9.6-7.7-15.5
	c-8.2-5.9-5.5-19.8-5.5-19.8c-10.5,15.3-5.2,35.3-5.2,35.3s-4.8-6.6-9.3-7.3c-4.6-0.7-7.1-7.1-7.1-7.1c-0.7,7.5,7.1,12.5,7.1,12.5
	c-35.3-16.4-5.7-40.8-5.7-40.8c-3.4,13,5.9,16.2,5.9,16.2c-5.7-9.3-2.5-29.2,10.5-36c13-6.8,8.2-18,8.2-18s10.9,7.3,5.7,24.2
	c-5.2,16.9,4.1,19.6,4.1,19.6s-2.7-2.5-2.7-9.6c0-7.1,7.3-11.8,7.3-11.8c-3.9,13.7,11.8,20.5,11.8,36.8
	C838.7,166.2,821.4,171.2,821.4,171.2z"/>
<g>
	<path class="st0" d="M1420.3,156.9c-21.6-0.2-43.5,11.6-65.6,35.6c0.5-2.3,0.8-4.7,0.8-7c0-8.3-2.1-15.6-6.2-21.7
		c-4.2-6.1-9.8-8.9-16.8-8.4c-3.9,0.3-11.2,5.5-21.9,15.6c-15.1,14.1-23.3,21.6-24.6,22.7l9.4,10.6c6.8-5,11.1-7.4,12.9-7.4
		c4.4,0,6.2,2.6,5.5,7.8c-0.2,6.6-1.7,18.3-4.5,35c-14.2,14.4-26,21.7-35.3,21.7c-9.9,0-14.5-6.1-13.7-18.4
		c0.3-3.4,1.9-12.2,5.1-26.6c2.9-13.5,4.4-23.7,4.7-30.5c0.5-21.1-9.1-31.9-28.9-32.4c-24.2-0.8-40.2,12.8-48.1,40.6
		c4.5-1.8,8.9-2.7,13.1-2.7c4,0,7.1,1.5,9.5,4.5c2.4,3,3.4,6.5,3.2,10.4c-0.3,10.2-5.4,21-15.6,32.6c-10.1,11.6-19.1,17.4-27,17.4
		c-5.5,0-8.1-4.7-7.9-14.1c0-4.9,1.4-14.4,4.1-28.3c2.7-13.9,4.2-24.2,4.5-30.7c0.3-8.6-1.9-15.6-6.5-20.9s-11-7.6-19.3-6.8
		c-5.7,0.5-14.2,5.7-25.4,15.6c-8.3,7.6-16.7,15.1-25,22.7l9,10.6c7.3-5.5,11.7-8.2,13.3-8.2c4.9,0,7.3,3.4,7,10.2
		c0,1.8-2.1,10.4-6.3,25.8c-4.2,15.4-6.4,26.8-6.6,34.4c-0.5,10.7,1.4,18.9,5.8,24.6c5.4,7,14.5,10,27.3,9c15-1,30.6-7,46.7-18
		c6.5-4.4,13-9.6,19.5-15.6c-0.8,3.1-1.2,6.1-1.2,9c0,8.1,2.4,14.7,7.2,19.9c4.8,5.2,10.6,7.8,17.4,7.8c17.7,0,35.2-7.6,52.4-22.7
		c4.1-3.6,8-7.4,11.6-11.3c-0.9,4.8-1.9,9.8-3,15c-8.3,41.6-12.8,69.6-13.3,83.9c-0.8,25.2,9.5,38.1,30.9,38.9
		c23.5,0.8,40.2-12.8,50.4-40.6c-4.2,2.1-8.2,3.1-12.1,3.1c-3.1,0-6.3-2-9.4-5.9c-5-6.6-7.3-16.4-7-29.5c0.3-11.8,1.2-23.8,2.7-36.1
		c7.6,2.9,16.3,3.6,26.2,2.3c28.1-3.4,50.4-16.7,66.8-39.9c11.7-16.4,18.6-34.4,20.7-53.9c0.3-2.3,0.4-4.8,0.4-7.4
		C1457,171.5,1444.8,157.4,1420.3,156.9z M1393.3,242.9c-9.4,14.1-19.3,21.4-29.7,21.9c-4.7,0.3-7.9-1-9.8-3.7
		c-1.8-2.7-2.6-6.3-2.4-10.7c0.8-9.9,5.5-21,14.1-33.2c9.4-13.5,18.6-20.3,27.7-20.3c8.3,0,12.4,5,12.1,14.9
		C1405.2,220.5,1401.1,230.9,1393.3,242.9z"/>
</g>
</svg>
