<?xml version="1.0" encoding="iso-8859-1"?>
<!-- Generator: Adobe Illustrator 19.0.0, SVG Export Plug-In . SVG Version: 6.00 Build 0)  -->
<svg version="1.1" id="Layer_1" xmlns="http://www.w3.org/2000/svg" xmlns:xlink="http://www.w3.org/1999/xlink" x="0px" y="0px"
	 viewBox="0 0 214.822 214.822" style="enable-background:new 0 0 214.822 214.822;" xml:space="preserve">
<g>
	<g>
		<path d="M163.376,59.466h-7.91V48.053C155.465,21.555,133.908,0,107.411,0C80.914,0,59.356,21.558,59.356,48.053v11.413h-7.91
			c-12.861,0-23.325,10.464-23.325,23.325v108.706c0,12.864,10.464,23.325,23.325,23.325h111.929
			c12.861,0,23.325-10.462,23.325-23.325V82.791C186.7,69.93,176.236,59.466,163.376,59.466z M74.573,48.053
			c0-18.106,14.73-32.836,32.838-32.836c18.106,0,32.836,14.73,32.836,32.836v11.413H74.573V48.053z M171.484,191.497
			c0,4.474-3.639,8.108-8.108,8.108H51.445c-4.471,0-8.108-3.637-8.108-8.108V82.791c0-4.471,3.637-8.108,8.108-8.108h7.91v10.67
			c-2.445,2.13-4.022,5.232-4.022,8.732c0,6.424,5.207,11.633,11.631,11.633c6.422,0,11.631-5.209,11.631-11.633
			c0-3.497-1.578-6.599-4.022-8.732v-10.67h65.674v10.67c-2.445,2.13-4.022,5.232-4.022,8.732c0,6.424,5.207,11.633,11.631,11.633
			s11.631-5.209,11.631-11.633c0-3.497-1.578-6.602-4.022-8.732v-10.67h7.91c4.471,0,8.108,3.637,8.108,8.108V191.497z"/>
	</g>
</g>
<g>
</g>
<g>
</g>
<g>
</g>
<g>
</g>
<g>
</g>
<g>
</g>
<g>
</g>
<g>
</g>
<g>
</g>
<g>
</g>
<g>
</g>
<g>
</g>
<g>
</g>
<g>
</g>
<g>
</g>
</svg>
