<svg xmlns="http://www.w3.org/2000/svg" width="454" height="454" viewBox="0 0 454 454">
  <g id="Group_8464" data-name="Group 8464" transform="translate(-29.134 -182.958)">
    <circle id="Ellipse_37" data-name="Ellipse 37" cx="227" cy="227" r="227" transform="translate(29.134 182.958)" fill="#06c168"/>
    <path id="check" d="M99.024,204.51a5.585,5.585,0,0,1-8.129.416L1.836,120.636a5.916,5.916,0,0,1-.23-8.337L29.98,82.316a5.916,5.916,0,0,1,8.337-.23l48.649,46.042a5.585,5.585,0,0,0,8.129-.416L190.139,17.279a5.913,5.913,0,0,1,8.315-.623L229.74,43.584a5.914,5.914,0,0,1,.623,8.317Z" transform="translate(135.895 301.458)" fill="#fff"/>
  </g>
</svg>
