<svg xmlns="http://www.w3.org/2000/svg" width="16.386" height="30.952" viewBox="0 0 16.386 30.952">
  <g id="Group_5102" data-name="Group 5102" transform="translate(-288.233 209.346) rotate(-75)">
    <path id="Path_3293" data-name="Path 3293" d="M317.193,259.662a.67.67,0,0,1-.716.614H304.61a.67.67,0,0,1-.716-.614v-5.449a.671.671,0,0,1,.716-.614h11.867a.671.671,0,0,1,.716.614Z" transform="translate(-47.99 -20.549)" fill="#581003"/>
    <rect id="Rectangle_1058" data-name="Rectangle 1058" width="13.299" height="3.718" transform="translate(255.904 234.543)" fill="#7b1f1b"/>
    <rect id="Rectangle_1059" data-name="Rectangle 1059" width="13.299" height="0.41" transform="translate(255.904 238.355)" fill="#7b1f1b"/>
    <path id="Path_3294" data-name="Path 3294" d="M317.183,299.872a.562.562,0,0,0,.01-.1v-.263h-13.3v.263a.553.553,0,0,0,.009.1Z" transform="translate(-47.99 -60.633)" fill="#7b1f1b"/>
    <path id="Path_3295" data-name="Path 3295" d="M304.239,303.225a.718.718,0,0,0,.671.41h11.868a.717.717,0,0,0,.671-.41Z" transform="translate(-48.29 -63.872)" fill="#7b1f1b"/>
    <rect id="Rectangle_1060" data-name="Rectangle 1060" width="13.299" height="0.335" transform="translate(255.904 234.114)" fill="#7b1f1b"/>
    <rect id="Rectangle_1061" data-name="Rectangle 1061" width="13.299" height="0.284" transform="translate(255.904 233.715)" fill="#7b1f1b"/>
    <path id="Path_3296" data-name="Path 3296" d="M317.2,254.189a.682.682,0,0,0-.714-.589H304.624a.682.682,0,0,0-.714.589Z" transform="translate(-48.004 -20.586)" fill="#7b1f1b"/>
    <path id="Path_3297" data-name="Path 3297" d="M317.193,270.038c0,.171-.321.31-.716.31H304.61c-.4,0-.716-.139-.716-.31v-2.747c0-.171.32-.309.716-.309h11.867c.4,0,.716.139.716.309Z" transform="translate(-47.99 -32.276)" fill="#8e1711"/>
    <g id="Group_5091" data-name="Group 5091" transform="translate(248.23 230)">
      <path id="Rectangle_1062" data-name="Rectangle 1062" d="M.759,0H4.067a.759.759,0,0,1,.759.759v0a.759.759,0,0,1-.759.759H.759A.759.759,0,0,1,0,.759v0A.759.759,0,0,1,.759,0Z" transform="translate(0 5.63)"/>
      <path id="Path_3298" data-name="Path 3298" d="M259.463,265.522h-2.5c-2.643.028-3.516.944-3.516,1.26V268c0,.316.94,1.3,3.137,1.241l2.879,0Z" transform="translate(-252.773 -261.004)" fill="#a7170d"/>
      <path id="Path_3299" data-name="Path 3299" d="M278.44,245.76s-4.855.955-5.711,3.516c0,0-1.378,4.876,5.711,5.188Z" transform="translate(-269.468 -243.722)" fill="#c81c1a"/>
      <path id="Path_3300" data-name="Path 3300" d="M295.816,245.76a5.136,5.136,0,0,0-3.179,3.516s-.767,4.876,3.179,5.188Z" transform="translate(-286.843 -243.722)" fill="#a7170d"/>
      <g id="Group_5090" data-name="Group 5090" transform="translate(5.17 0)">
        <path id="Path_3301" data-name="Path 3301" d="M300.34,260.752a2.428,2.428,0,0,0-1.486,1.579c-.248,1.144.071,2.97,1.561,3.53Z" transform="translate(-297.413 -256.853)" fill="#400900"/>
        <g id="Group_5078" data-name="Group 5078" transform="translate(1.145 3.652)">
          <path id="Path_3302" data-name="Path 3302" d="M302.986,261.962a.261.261,0,0,0,.261.261h.717a.261.261,0,0,0,.261-.261h0a.261.261,0,0,0-.261-.261h-.717a.261.261,0,0,0-.261.261Z" transform="translate(-302.222 -261.303)" fill="#7c140a"/>
          <g id="Group_5077" data-name="Group 5077">
            <path id="Path_3303" data-name="Path 3303" d="M297.845,258.658s-.914.2-.746.8c.088.315,1.066.6,1.39.425.138-.076.16-.859.034-1.136C298.457,258.6,298.1,258.6,297.845,258.658Z" transform="translate(-297.078 -258.621)" fill="#e95433"/>
            <path id="Path_3304" data-name="Path 3304" d="M305.273,258.75c-.047-.1-.241-.137-.442-.124v1.309a.746.746,0,0,0,.408-.048C305.377,259.809,305.4,259.027,305.273,258.75Z" transform="translate(-303.829 -258.623)" fill="#a8a7a1"/>
            <path id="Path_3305" data-name="Path 3305" d="M297.262,259.172c.128-.38.743-.514.743-.514.259-.063.612-.054.677.09a1.3,1.3,0,0,1,.079.424Z" transform="translate(-297.238 -258.621)" fill="#e95433"/>
          </g>
        </g>
        <g id="Group_5080" data-name="Group 5080" transform="translate(1.145 7.808)">
          <path id="Path_3306" data-name="Path 3306" d="M302.986,294.525a.261.261,0,0,0,.261.261h.717a.261.261,0,0,0,.261-.261h0a.261.261,0,0,0-.261-.261h-.717a.261.261,0,0,0-.261.261Z" transform="translate(-302.222 -293.866)" fill="#7c140a"/>
          <g id="Group_5079" data-name="Group 5079">
            <path id="Path_3307" data-name="Path 3307" d="M297.845,291.22s-.914.2-.746.8c.088.315,1.066.605,1.39.425.138-.076.16-.859.034-1.136C298.457,291.166,298.1,291.157,297.845,291.22Z" transform="translate(-297.078 -291.183)" fill="#e95433"/>
            <path id="Path_3308" data-name="Path 3308" d="M305.273,291.311c-.047-.1-.241-.137-.442-.125V292.5a.743.743,0,0,0,.408-.048C305.377,292.371,305.4,291.588,305.273,291.311Z" transform="translate(-303.829 -291.184)" fill="#a8a7a1"/>
            <path id="Path_3309" data-name="Path 3309" d="M297.262,291.734c.128-.38.743-.514.743-.514.259-.063.612-.054.677.09a1.3,1.3,0,0,1,.079.424Z" transform="translate(-297.238 -291.183)" fill="#e95433"/>
          </g>
        </g>
        <path id="Path_3310" data-name="Path 3310" d="M290.987,272.069a1,1,0,0,1-.618.909l-1.534.183a.6.6,0,0,1-.614-.583V271.36a.6.6,0,0,1,.614-.583l1.534.182c.339,0,.618.555.618.877Z" transform="translate(-288.221 -265.58)" fill="#74160a"/>
        <path id="Path_3311" data-name="Path 3311" d="M289.03,270.8l-.2-.023a.6.6,0,0,0-.614.583v1.219a.6.6,0,0,0,.614.583l.2-.023Z" transform="translate(-288.221 -265.58)" fill="#fffce6"/>
        <path id="Path_3312" data-name="Path 3312" d="M292.831,270.8l-.2-.023-.049,0v2.38l.049,0,.2-.023Z" transform="translate(-292.023 -265.58)" fill="#878888"/>
        <g id="Group_5089" data-name="Group 5089" transform="translate(1.766)">
          <g id="Group_5084" data-name="Group 5084" transform="translate(0.002 6.146)">
            <path id="Path_3313" data-name="Path 3313" d="M308.2,278.8l-2.3-.1a5.725,5.725,0,0,0,.265,1.727,16.636,16.636,0,0,0,1.166,2.414l.337-.3s-.4-1.456-.124-1.759A3.374,3.374,0,0,0,308.2,278.8Z" transform="translate(-305.382 -278.697)" fill="#a7170d"/>
            <g id="Group_5082" data-name="Group 5082" transform="translate(0.111 4.514)">
              <path id="Path_3314" data-name="Path 3314" d="M303.423,314.64c-.076-.585-.279-1.043-.455-1.025s-.257.508-.181,1.093.279,1.043.455,1.025S303.5,315.225,303.423,314.64Z" transform="translate(-302.76 -313.615)" fill="#878888"/>
              <g id="Group_5081" data-name="Group 5081" transform="translate(0.149)">
                <path id="Path_3315" data-name="Path 3315" d="M304.427,314.64c.076.585-.005,1.074-.181,1.092a.1.1,0,0,1-.037,0,1.522,1.522,0,0,0,.121-1.065c-.07-.544-.251-.978-.417-1.022a.111.111,0,0,1,.06-.028C304.148,313.6,304.351,314.056,304.427,314.64Z" transform="translate(-303.912 -313.615)" fill="#626362"/>
              </g>
            </g>
            <path id="Path_3316" data-name="Path 3316" d="M302.037,302.151a.127.127,0,0,1-.1-.042.256.256,0,0,1-.031-.194c0-.007,0-.011,0-.014s.009-.085.044-.386c.064-.544.183-1.555.183-1.672,0-.183.122-.206.127-.207l1.731-.433.012.049-1.733.433s-.087.019-.087.158c0,.119-.115,1.095-.184,1.678-.024.206-.043.369-.044.381s0,.01,0,.02a.223.223,0,0,0,.019.154.079.079,0,0,0,.061.024Z" transform="translate(-301.902 -296.552)" fill="#797a79"/>
            <g id="Group_5083" data-name="Group 5083" transform="translate(1.662 3.641)">
              <path id="Path_3317" data-name="Path 3317" d="M316.915,309.413a.122.122,0,0,1-.077.154l-.293.083a.122.122,0,0,1-.147-.09l-.54-1.9a.122.122,0,0,1,.077-.154l.293-.083a.122.122,0,0,1,.147.09Z" transform="translate(-315.712 -307.345)" fill="#313030"/>
              <path id="Path_3318" data-name="Path 3318" d="M315.5,306.909c.01.034,0,.066-.022.072l-.656.191c-.022.006-.047-.016-.057-.049h0c-.01-.034,0-.066.022-.072l.655-.191c.022-.006.048.016.058.049Z" transform="translate(-314.76 -306.859)" fill="#0c2518"/>
            </g>
          </g>
          <g id="Group_5088" data-name="Group 5088">
            <path id="Path_3319" data-name="Path 3319" d="M308.184,253.243l-2.3-.168a3.729,3.729,0,0,1,.214-1.354,20.864,20.864,0,0,1,1.216-2.451l.337.3s-.4,1.456-.124,1.759A3.157,3.157,0,0,1,308.184,253.243Z" transform="translate(-305.363 -246.779)" fill="#a7170d"/>
            <g id="Group_5086" data-name="Group 5086" transform="translate(0.111)">
              <path id="Path_3320" data-name="Path 3320" d="M303.4,231.093c-.076.585-.279,1.044-.455,1.025s-.257-.508-.181-1.092.279-1.043.455-1.025S303.48,230.508,303.4,231.093Z" transform="translate(-302.741 -230)" fill="#878888"/>
              <g id="Group_5085" data-name="Group 5085" transform="translate(0.149 0)">
                <path id="Path_3321" data-name="Path 3321" d="M304.409,231.093c.075-.584-.006-1.074-.181-1.092a.106.106,0,0,0-.037,0,1.519,1.519,0,0,1,.121,1.065c-.07.543-.251.978-.417,1.021a.11.11,0,0,0,.06.028C304.13,232.137,304.333,231.678,304.409,231.093Z" transform="translate(-303.894 -230)" fill="#626362"/>
              </g>
            </g>
            <path id="Path_3322" data-name="Path 3322" d="M303.976,241.085l-1.735-.575h0s-.123-.023-.123-.206c0-.116-.119-1.129-.183-1.672-.035-.3-.044-.378-.044-.386a.122.122,0,0,0,0-.014.256.256,0,0,1,.031-.194.127.127,0,0,1,.1-.042v.051a.078.078,0,0,0-.061.024.222.222,0,0,0-.019.154c0,.01,0,.017,0,.021s.02.174.044.38c.068.583.183,1.559.183,1.678,0,.139.082.157.085.157l1.739.576Z" transform="translate(-301.883 -236.962)" fill="#797a79"/>
            <g id="Group_5087" data-name="Group 5087" transform="translate(1.665 0.683)">
              <path id="Path_3323" data-name="Path 3323" d="M316.915,235.523a.122.122,0,0,0-.077-.154l-.293-.083a.123.123,0,0,0-.147.091l-.54,1.9a.122.122,0,0,0,.077.154l.293.083a.122.122,0,0,0,.147-.09Z" transform="translate(-315.712 -235.282)" fill="#313030"/>
              <path id="Path_3324" data-name="Path 3324" d="M315.5,250.969c.01-.033,0-.066-.022-.072l-.656-.191c-.022-.007-.047.015-.057.049h0c-.01.034,0,.066.022.072l.655.191c.022.007.048-.016.058-.049Z" transform="translate(-314.76 -248.71)" fill="#0c2518"/>
            </g>
          </g>
        </g>
        <path id="Path_3325" data-name="Path 3325" d="M313.49,271.349c0,.6-.323,1.091-.722,1.091s-.722-.489-.722-1.091.323-1.091.722-1.091S313.49,270.747,313.49,271.349Z" transform="translate(-308.966 -265.126)" fill="#aeaeae"/>
        <path id="Path_3326" data-name="Path 3326" d="M313.49,271.349c0,.6-.323,1.091-.722,1.091s-.722-.489-.722-1.091.323-1.091.722-1.091S313.49,270.747,313.49,271.349Z" transform="translate(-308.966 -265.126)" fill="#aeaeae"/>
        <path id="Path_3327" data-name="Path 3327" d="M315.853,273.135c0,.456-.245.826-.547.826s-.547-.37-.547-.826.245-.826.547-.826S315.853,272.679,315.853,273.135Z" transform="translate(-311.329 -266.912)" fill="#fff"/>
      </g>
      <path id="Path_3328" data-name="Path 3328" d="M273.74,256.365a5.085,5.085,0,0,1,3.393-3.783S273.824,253.52,273.74,256.365Z" transform="translate(-270.442 -249.71)" fill="#fff"/>
      <path id="Path_3329" data-name="Path 3329" d="M254.587,268.7s.32-1.171,2.626-1.484a5.877,5.877,0,0,0-2.222.578A1.234,1.234,0,0,0,254.587,268.7Z" transform="translate(-253.763 -262.467)" fill="#fff"/>
    </g>
    <g id="Group_5101" data-name="Group 5101" transform="translate(263.212 232.131)">
      <path id="Path_3330" data-name="Path 3330" d="M376.042,250.811c0,.334-.2.606-.444.606h0c-.246,0-.444-.271-.444-.606v-1.387c0-.335.2-.606.444-.606h0c.245,0,.444.271.444.606Z" transform="translate(-372.612 -248.592)" fill="#6a6b6a"/>
      <path id="Path_3331" data-name="Path 3331" d="M376.042,294.829c0,.334-.2.606-.444.606h0c-.246,0-.444-.271-.444-.606v-1.387c0-.334.2-.605.444-.605h0c.245,0,.444.271.444.605Z" transform="translate(-372.612 -286.919)" fill="#6a6b6a"/>
      <path id="Path_3332" data-name="Path 3332" d="M371.743,266.43c0,.4-.548.716-1.224.716H356.714c-.676,0-1.223-.321-1.223-.716v-3.236c0-.4.548-.716,1.223-.716H370.52c.676,0,1.224.32,1.224.716Z" transform="translate(-355.491 -260.486)" fill="#a7170d"/>
      <path id="Path_3333" data-name="Path 3333" d="M371.134,286.739a6.642,6.642,0,0,1-4.691,2.064c-3.095.121-5.9-.043-5.9-.043s-4.035-.662-5.055-3.488Z" transform="translate(-355.491 -280.333)" fill="#a7170d"/>
      <path id="Path_3334" data-name="Path 3334" d="M371.134,249.176a6.642,6.642,0,0,0-4.691-2.064c-3.095-.121-5.9.043-5.9.043s-4.035.662-5.055,3.488Z" transform="translate(-355.491 -247.067)" fill="#a7170d"/>
      <path id="Path_3335" data-name="Path 3335" d="M380.067,286.447a5.318,5.318,0,0,1-3.757,1.653c-2.479.1-4.722-.035-4.722-.035s-3.232-.53-4.048-2.793Z" transform="translate(-365.982 -280.333)" fill="#8e1711"/>
      <path id="Path_3336" data-name="Path 3336" d="M381.79,255.246a5.064,5.064,0,0,0-3.577-1.574c-2.36-.093-4.5.033-4.5.033s-3.077.5-3.854,2.659Z" transform="translate(-368.006 -252.789)" fill="#8e1711"/>
      <g id="Group_5100" data-name="Group 5100" transform="translate(8.954 1.68)">
        <path id="Path_3337" data-name="Path 3337" d="M426.857,269.093c0,.1-.146.175-.325.175h0c-.18,0-.325-.078-.325-.175v-3.757c0-.1.146-.174.325-.174h0c.18,0,.325.078.325.174Z" transform="translate(-426.018 -264.503)" fill="#a7170d"/>
        <g id="Group_5094" data-name="Group 5094" transform="translate(1.806)">
          <path id="Path_3338" data-name="Path 3338" d="M439.173,265.444c0,.055-.078.1-.175.1h0c-.1,0-.175-.045-.175-.1v-1.393c0-.055.078-.1.175-.1h0c.1,0,.175.045.175.1Z" transform="translate(-438.809 -263.448)" fill="#7c140a"/>
          <g id="Group_5093" data-name="Group 5093">
            <path id="Path_3339" data-name="Path 3339" d="M439.956,263.4a.261.261,0,0,1-.261.261h-.717a.261.261,0,0,1-.261-.261h0a.261.261,0,0,1,.261-.261h.717a.261.261,0,0,1,.261.261Z" transform="translate(-438.717 -262.745)" fill="#7c140a"/>
            <g id="Group_5092" data-name="Group 5092" transform="translate(0.475)">
              <path id="Path_3340" data-name="Path 3340" d="M443.153,260.1s.915.2.746.8c-.088.315-1.066.6-1.39.425-.138-.076-.16-.859-.034-1.136C442.541,260.046,442.894,260.036,443.153,260.1Z" transform="translate(-442.392 -260.062)" fill="#e95433"/>
              <path id="Path_3341" data-name="Path 3341" d="M442.475,260.191c.047-.1.241-.137.442-.124v1.309a.747.747,0,0,1-.408-.048C442.372,261.25,442.349,260.468,442.475,260.191Z" transform="translate(-442.392 -260.064)" fill="#a8a7a1"/>
              <path id="Path_3342" data-name="Path 3342" d="M443.923,260.613c-.129-.38-.743-.514-.743-.514-.259-.063-.612-.054-.677.09a1.3,1.3,0,0,0-.079.424Z" transform="translate(-442.419 -260.062)" fill="#e95433"/>
            </g>
          </g>
        </g>
        <g id="Group_5097" data-name="Group 5097" transform="translate(1.806 3.148)">
          <path id="Path_3343" data-name="Path 3343" d="M439.173,284.514c0-.055-.078-.1-.175-.1h0c-.1,0-.175.045-.175.1v1.393c0,.055.078.1.175.1h0c.1,0,.175-.045.175-.1Z" transform="translate(-438.809 -284.414)" fill="#7c140a"/>
          <g id="Group_5096" data-name="Group 5096" transform="translate(0 0.777)">
            <path id="Path_3344" data-name="Path 3344" d="M439.956,293.769a.261.261,0,0,0-.261-.261h-.717a.261.261,0,0,0-.261.261h0a.261.261,0,0,0,.261.261h.717a.261.261,0,0,0,.261-.261Z" transform="translate(-438.717 -293.11)" fill="#7c140a"/>
            <g id="Group_5095" data-name="Group 5095" transform="translate(0.475)">
              <path id="Path_3345" data-name="Path 3345" d="M443.153,291.708s.915-.2.746-.8c-.088-.315-1.066-.605-1.39-.426-.138.077-.16.859-.034,1.136C442.541,291.762,442.894,291.771,443.153,291.708Z" transform="translate(-442.392 -290.427)" fill="#e95433"/>
              <path id="Path_3346" data-name="Path 3346" d="M442.475,291.621c.047.1.241.136.442.125v-1.309a.747.747,0,0,0-.408.048C442.372,290.561,442.349,291.344,442.475,291.621Z" transform="translate(-442.392 -290.429)" fill="#a8a7a1"/>
              <path id="Path_3347" data-name="Path 3347" d="M443.923,296.363c-.129.38-.743.514-.743.514-.259.063-.612.054-.677-.09a1.3,1.3,0,0,1-.079-.424Z" transform="translate(-442.419 -295.596)" fill="#e95433"/>
            </g>
          </g>
        </g>
        <path id="Path_3348" data-name="Path 3348" d="M425.932,262.164a.59.59,0,1,1-.591-.59A.59.59,0,0,1,425.932,262.164Z" transform="translate(-424.751 -261.379)" fill="#a7170d"/>
        <path id="Path_3349" data-name="Path 3349" d="M425.932,289.863a.59.59,0,1,1-.591-.59A.59.59,0,0,1,425.932,289.863Z" transform="translate(-424.751 -285.497)" fill="#a7170d"/>
        <g id="Group_5098" data-name="Group 5098" transform="translate(4.04 1.607)">
          <rect id="Rectangle_1063" data-name="Rectangle 1063" width="1.881" height="1.92" fill="#e95433"/>
          <rect id="Rectangle_1064" data-name="Rectangle 1064" width="0.749" height="1.92" fill="#a8a7a1"/>
          <rect id="Rectangle_1065" data-name="Rectangle 1065" width="1.881" height="0.489" fill="#e95433"/>
        </g>
        <g id="Group_5099" data-name="Group 5099" transform="translate(0.863 0.892)">
          <path id="Path_3350" data-name="Path 3350" d="M435.419,266.959h-3.481c-.284,0-.513.32-.513.716v1.92c0,.4.23.716.513.716h3.481c.284,0,.514-.321.514-.716v-1.92C435.933,267.28,435.7,266.959,435.419,266.959Zm.124,2.488c0,.339-.18.614-.4.614H432.4c-.223,0-.4-.275-.4-.614V267.8c0-.339.181-.614.4-.614h2.735c.223,0,.4.275.4.614Z" transform="translate(-431.425 -266.959)" fill="#c4c4c3"/>
          <path id="Path_3351" data-name="Path 3351" d="M444.211,270.608a.152.152,0,0,1-.151.151h0a.152.152,0,0,1-.152-.151v-2.982a.151.151,0,0,1,.152-.152h0a.151.151,0,0,1,.151.152Z" transform="translate(-442.294 -267.408)" fill="#c4c4c3"/>
          <path id="Path_3352" data-name="Path 3352" d="M455.524,270.608a.152.152,0,0,1-.151.151h0a.152.152,0,0,1-.152-.151v-2.982a.151.151,0,0,1,.152-.152h0a.151.151,0,0,1,.151.152Z" transform="translate(-452.145 -267.408)" fill="#c4c4c3"/>
        </g>
      </g>
      <path id="Path_3353" data-name="Path 3353" d="M365.728,255.975a9.426,9.426,0,0,1-3.838,1.318c-1.779.354-1.4,1.391-1.4,1.391l.066.006-.066.006s-.383,1.037,1.4,1.391a9.426,9.426,0,0,1,3.838,1.318c1.37.77,3.885.973,4.158-1.8v-1.83C369.613,255,367.1,255.205,365.728,255.975Z" transform="translate(-359.816 -254.388)" fill="#543a22"/>
      <path id="Path_3354" data-name="Path 3354" d="M367.549,259.574a7.97,7.97,0,0,1-3.245,1.115c-1.5.3-1.181,1.177-1.181,1.177l.056,0-.056,0s-.323.877,1.181,1.176a7.971,7.971,0,0,1,3.245,1.114c1.158.651,3.285.823,3.516-1.522V261.1C370.835,258.752,368.708,258.923,367.549,259.574Z" transform="translate(-362.111 -257.589)" fill="#6e4c30"/>
      <path id="Path_3355" data-name="Path 3355" d="M367.54,250.467a9.411,9.411,0,0,1,4.472-1.649A7.1,7.1,0,0,0,367.54,250.467Z" transform="translate(-365.982 -248.592)" fill="#fff"/>
      <path id="Path_3356" data-name="Path 3356" d="M381.857,307.418a24.46,24.46,0,0,0,6.372.661S383.212,308.137,381.857,307.418Z" transform="translate(-378.448 -299.616)" fill="#fff"/>
    </g>
  </g>
</svg>
