<?xml version="1.0" encoding="iso-8859-1"?>
<!-- Generator: Adobe Illustrator 19.0.0, SVG Export Plug-In . SVG Version: 6.00 Build 0)  -->
<svg version="1.1" id="Capa_1" xmlns="http://www.w3.org/2000/svg" xmlns:xlink="http://www.w3.org/1999/xlink" x="0px" y="0px"
	 viewBox="0 0 512 512" style="enable-background:new 0 0 512 512;" xml:space="preserve">
<g>
	<g>
		<path d="M511.306,205.805c-0.712-7.447-6.607-13.342-14.054-14.054c-4.172-0.398-102.848-9.104-160.309,48.358
			c-12.46,12.46-21.804,26.858-28.802,41.809c-11.523-47.184-32.019-86.331-60.158-114.469
			c-34.681-34.681-86.083-57.755-148.647-66.726c-46.552-6.676-82.801-3.341-84.321-3.194c-7.447,0.712-13.342,6.607-14.054,14.054
			c-0.146,1.52-3.481,37.768,3.194,84.321c8.971,62.564,32.044,113.967,66.726,148.647c34.681,34.681,86.083,57.755,148.647,66.726
			c23.041,3.304,43.553,4.155,58.583,4.155c13.62-0.001,33.469-0.267,42.607-0.267c31.958,0,98.844-5.664,142.23-49.052
			C520.409,308.654,511.705,209.979,511.306,205.805z M170.469,244.963c-6.095-6.095-15.979-6.095-22.076,0
			c-6.096,6.095-6.096,15.979,0,22.076L265.315,383.96c-45.052-1.517-122.77-11.894-172.359-61.483
			c-59.098-59.098-62.448-158.663-61.569-194.54c35.878-0.936,135.277,2.345,194.521,61.589
			c49.446,49.446,59.865,127.211,61.435,172.311L170.469,244.963z M440.873,344.039c-27.516,27.516-68.915,36.323-98.664,38.885
			l68.774-68.775c6.096-6.095,6.096-15.979,0-22.076c-6.095-6.095-15.979-6.095-22.076,0l-68.835,68.835
			c2.523-29.711,11.305-71.084,38.945-98.724c35.811-35.812,95.132-39.944,121.697-39.843
			C480.81,248.907,476.678,308.233,440.873,344.039z"/>
	</g>
</g>
<g>
</g>
<g>
</g>
<g>
</g>
<g>
</g>
<g>
</g>
<g>
</g>
<g>
</g>
<g>
</g>
<g>
</g>
<g>
</g>
<g>
</g>
<g>
</g>
<g>
</g>
<g>
</g>
<g>
</g>
</svg>
