<svg id="Capa_1" enable-background="new 0 0 512.007 512.007" height="512" viewBox="0 0 512.007 512.007" width="512" xmlns="http://www.w3.org/2000/svg"><g><circle cx="256.004" cy="119.938" r="52.469"/><path d="m85.465 223.008h39.227c6.819-28.967 32.863-50.602 63.881-50.602h3.853c-8.76-10.596-14.905-23.418-17.499-37.469h-53.861v-30h53.861c7.076-38.333 40.727-67.469 81.077-67.469s74 29.136 81.077 67.469h53.861v30h-53.862c-2.594 14.051-8.739 26.873-17.499 37.469h3.853c31.018 0 57.063 21.635 63.881 50.602h39.227v-223.008h-341.077z"/><path d="m323.434 202.406h-134.861c-19.651 0-35.64 15.988-35.64 35.639v121.215l37.469 28.102v-80.841c0-17.871 7.355-35.329 20.18-47.899 12.681-12.43 29.331-19.076 46.753-18.733 17.245.345 33.401 7.32 45.493 19.642 12.108 12.339 18.777 28.657 18.777 45.947v81.886l37.469-28.102v-121.217c0-19.651-15.988-35.639-35.64-35.639z"/><path d="m291.605 305.477c0-19.242-15.643-35.21-34.87-35.594-.23-.005-.461-.007-.69-.007-9.093 0-17.756 3.596-24.463 10.17-7.105 6.964-11.18 16.614-11.18 26.475v168.886c0 9.837 4.063 19.466 11.148 26.417 6.873 6.742 15.841 10.344 25.152 10.178 19.245-.368 34.902-16.336 34.902-35.595v-170.93z"/></g></svg>