<svg id="paypal" xmlns="http://www.w3.org/2000/svg" width="22.9" height="22.903" viewBox="0 0 22.9 22.903">
  <path id="Path_3427" data-name="Path 3427" d="M13.717,10.941h0a.622.622,0,0,1,.608-.489H22.9c.011,0,.022,0,.032,0A4.756,4.756,0,0,0,17.948,6H9.377a.626.626,0,0,0-.608.494h0L5.02,23.695h.008A.566.566,0,0,0,5,23.819a.631.631,0,0,0,.636.63h5.135Z" transform="translate(-5.003 -6)" fill="#1565c0"/>
  <path id="Path_3428" data-name="Path 3428" d="M25.762,12.994a6.776,6.776,0,0,1-.146,1.834,7.1,7.1,0,0,1-7.4,5.8H15.471a.585.585,0,0,0-.56.344L13.8,26.091,13.61,27h0l-.8,3.687h.008a.566.566,0,0,0-.025.123.636.636,0,0,0,.636.636h4.665l.008-.006a.627.627,0,0,0,.6-.5l.011-.01,1.153-5.354a.615.615,0,0,1,.617-.511h2.658c3.641,0,6.617-1.976,7.433-5.791C31.486,14.974,28.419,13.01,25.762,12.994Z" transform="translate(-7.834 -8.544)" fill="#039be5"/>
  <path id="Path_3429" data-name="Path 3429" d="M18.374,13a.621.621,0,0,0-.608.489h0l-1.638,7.485a.585.585,0,0,1,.56-.344h2.694c3.641,0,6.637-1.985,7.452-5.8a6.75,6.75,0,0,0,.146-1.834.269.269,0,0,0-.032,0Z" transform="translate(-9.049 -8.545)" fill="#283593"/>
</svg>
