<svg id="Layer_4" enable-background="new 0 0 24 24" height="512" viewBox="0 0 24 24" width="512" xmlns="http://www.w3.org/2000/svg"><path d="m20 22h-1v-3.273c0-1.628-.693-3.186-1.903-4.274l-1.693-1.523c-.267-.241-.414-.571-.414-.93s.147-.689.414-.929l1.693-1.523c1.21-1.09 1.903-2.647 1.903-4.275v-3.273h1c.553 0 1-.448 1-1s-.447-1-1-1h-16c-.553 0-1 .448-1 1s.447 1 1 1h1v3.273c0 1.628.693 3.186 1.903 4.274l1.693 1.523c.267.241.414.571.414.93s-.147.689-.414.929l-1.693 1.523c-1.21 1.09-1.903 2.647-1.903 4.275v3.273h-1c-.553 0-1 .448-1 1s.447 1 1 1h16c.553 0 1-.448 1-1s-.447-1-1-1zm-12-3.171c0-.735.286-1.425.806-1.945l2.664-2.664c.293-.293.768-.293 1.061 0l2.664 2.664c.52.52.806 1.21.806 1.945v3.171h-8.001z"/></svg>