<svg height="512pt" viewBox="0 0 512 512" width="512pt" xmlns="http://www.w3.org/2000/svg"><path d="m392 271c-40.242188 0-75.921875 19.914062-97.699219 50.402344l-99.746093-58.84375c3.523437-10.210938 5.445312-21.164063 5.445312-32.558594 0-6.878906-.699219-13.601562-2.027344-20.09375l164.136719-70.09375c15.601563 18.445312 38.894531 30.1875 64.890625 30.1875 46.867188 0 85-38.132812 85-85s-38.132812-85-85-85-85 38.132812-85 85c0 6.527344.765625 12.875 2.164062 18.984375l-161.949218 69.160156c-18.070313-26.050781-48.179688-43.144531-82.214844-43.144531-55.140625 0-100 44.859375-100 100s44.859375 100 100 100c29.398438 0 55.871094-12.753906 74.183594-33.015625l102.582031 60.515625c-3.097656 10.636719-4.765625 21.878906-4.765625 33.5 0 66.167969 53.832031 120 120 120s120-53.832031 120-120-53.832031-120-120-120zm35-231c24.8125 0 45 20.1875 45 45s-20.1875 45-45 45-45-20.1875-45-45 20.1875-45 45-45zm-327 250c-33.085938 0-60-26.914062-60-60s26.914062-60 60-60 60 26.914062 60 60-26.914062 60-60 60zm292 181c-44.113281 0-80-35.886719-80-80s35.886719-80 80-80 80 35.886719 80 80-35.886719 80-80 80zm0 0"/></svg>