<svg id="settings" xmlns="http://www.w3.org/2000/svg" width="23.214" height="23.214" viewBox="0 0 23.214 23.214">
  <g id="Group_7954" data-name="Group 7954" transform="translate(6.347 6.347)">
    <g id="Group_7953" data-name="Group 7953">
      <path id="Path_3444" data-name="Path 3444" d="M145.259,140a5.259,5.259,0,1,0,1.589,10.274.907.907,0,0,0-.547-1.729,3.441,3.441,0,1,1,2.266-2.316.907.907,0,0,0,1.741.509A5.263,5.263,0,0,0,145.259,140Z" transform="translate(-140 -140)" fill="#132229"/>
    </g>
  </g>
  <g id="Group_7956" data-name="Group 7956">
    <g id="Group_7955" data-name="Group 7955">
      <path id="Path_3445" data-name="Path 3445" d="M20.493,8.433h-.457a.3.3,0,0,1-.276-.19l-.008-.02a.3.3,0,0,1,.059-.333l.323-.323a2.723,2.723,0,0,0,0-3.847l-.641-.641a2.72,2.72,0,0,0-3.847,0l-.323.323a.3.3,0,0,1-.333.06l-.017-.007a.3.3,0,0,1-.193-.277V2.72A2.723,2.723,0,0,0,12.06,0h-.907a2.723,2.723,0,0,0-2.72,2.72v.457a.3.3,0,0,1-.192.277l-.018.007A.3.3,0,0,1,7.89,3.4l-.323-.323a2.72,2.72,0,0,0-3.847,0l-.641.641a2.723,2.723,0,0,0,0,3.847L3.4,7.89a.306.306,0,0,1,.058.337l-.005.013a.3.3,0,0,1-.277.193H2.72A2.723,2.723,0,0,0,0,11.153v.907a2.723,2.723,0,0,0,2.72,2.72h.457a.3.3,0,0,1,.276.19l.008.02a.3.3,0,0,1-.059.333l-.323.323a2.72,2.72,0,0,0,0,3.847l.641.641a2.72,2.72,0,0,0,3.847,0l.323-.323a.3.3,0,0,1,.333-.06l.017.007a.3.3,0,0,1,.193.277v.457a2.723,2.723,0,0,0,2.72,2.72h.907a2.723,2.723,0,0,0,2.72-2.72v-.457a.3.3,0,0,1,.192-.277l.018-.007a.3.3,0,0,1,.333.059l.323.323a2.72,2.72,0,0,0,3.847,0l.641-.641a2.72,2.72,0,0,0,0-3.847l-.323-.323a.3.3,0,0,1-.059-.333l.007-.017a.3.3,0,0,1,.277-.193h.457a2.723,2.723,0,0,0,2.72-2.72v-.907A2.723,2.723,0,0,0,20.493,8.433ZM21.4,12.06a.908.908,0,0,1-.907.907h-.457a2.111,2.111,0,0,0-1.954,1.314l-.006.014a2.112,2.112,0,0,0,.452,2.311l.323.323a.907.907,0,0,1,0,1.282l-.641.641a.907.907,0,0,1-1.282,0l-.323-.323a2.112,2.112,0,0,0-2.312-.452l-.013.005a2.111,2.111,0,0,0-1.314,1.954v.457a.908.908,0,0,1-.907.907h-.907a.908.908,0,0,1-.907-.907v-.457a2.111,2.111,0,0,0-1.315-1.954l-.012-.005a2.141,2.141,0,0,0-.822-.165,2.1,2.1,0,0,0-1.489.617l-.323.323a.907.907,0,0,1-1.282,0l-.641-.641a.907.907,0,0,1,0-1.282l.323-.323A2.112,2.112,0,0,0,5.137,14.3l-.006-.014a2.111,2.111,0,0,0-1.954-1.314H2.72a.908.908,0,0,1-.907-.907v-.907a.908.908,0,0,1,.907-.907h.457A2.112,2.112,0,0,0,5.132,8.93l0-.01a2.112,2.112,0,0,0-.452-2.312l-.323-.323A.908.908,0,0,1,4.361,5L5,4.361a.907.907,0,0,1,1.282,0l.323.323a2.112,2.112,0,0,0,2.312.452l.013-.005a2.111,2.111,0,0,0,1.314-1.954V2.72a.908.908,0,0,1,.907-.907h.907a.908.908,0,0,1,.907.907v.457a2.111,2.111,0,0,0,1.315,1.954l.012.005a2.112,2.112,0,0,0,2.312-.452l.323-.323a.907.907,0,0,1,1.282,0L18.852,5a.908.908,0,0,1,0,1.282l-.323.323a2.11,2.11,0,0,0-.453,2.308l.007.017a2.111,2.111,0,0,0,1.954,1.314h.457a.908.908,0,0,1,.907.907Z" fill="#132229"/>
    </g>
  </g>
</svg>
