<svg id="stripe" xmlns="http://www.w3.org/2000/svg" width="33.242" height="22.953" viewBox="0 0 33.242 22.953">
  <path id="Path_3432" data-name="Path 3432" d="M33.681,31.953H5.56A2.5,2.5,0,0,1,3,29.458v-17.9A2.553,2.553,0,0,1,5.56,9h28.12a2.553,2.553,0,0,1,2.561,2.555v17.9A2.5,2.5,0,0,1,33.681,31.953Z" transform="translate(-3 -9)" fill="#03a9f4"/>
  <path id="Path_3433" data-name="Path 3433" d="M30.631,21.885c.055-.871.28-1.277.733-1.277.434,0,.671.417.7,1.277Zm3.25.521a3.763,3.763,0,0,0-.618-2.283,2.241,2.241,0,0,0-1.867-.831c-1.653,0-2.688,1.224-2.688,3.183a3.245,3.245,0,0,0,.822,2.442,2.89,2.89,0,0,0,2.082.707,3.954,3.954,0,0,0,2.083-.518l-.212-1.336a3.423,3.423,0,0,1-1.658.4,1.05,1.05,0,0,1-1.19-1.1h3.22A6.721,6.721,0,0,0,33.881,22.405ZM26.049,23.67a.816.816,0,0,1-.7.459,1.237,1.237,0,0,1-.53-.116V21.07a1.1,1.1,0,0,1,.746-.389c.5,0,.745.539.745,1.6A3.056,3.056,0,0,1,26.049,23.67Zm1.627-3.818a1.738,1.738,0,0,0-1.46-.675,2.04,2.04,0,0,0-1.531.741l-.112-.621H22.838V28l1.964-.329.013-2.215a3.059,3.059,0,0,0,.9.146,2.343,2.343,0,0,0,1.769-.733,3.857,3.857,0,0,0,.788-2.66A3.835,3.835,0,0,0,27.676,19.852ZM20.089,19.3h1.957v6.325H20.089Zm.995-.613a1.042,1.042,0,1,0-1.047-1.039A1.037,1.037,0,0,0,21.084,18.684Zm-1.837.528a1.176,1.176,0,0,0-1.18.816l-.119-.729H16.231v6.324H18.2V21.468a1.271,1.271,0,0,1,1.078-.412,2.221,2.221,0,0,1,.347.021V19.261A1.713,1.713,0,0,0,19.247,19.212Zm-3.786,1.547.244-1.463H14.438V17.52l-1.685.28-.245,1.5-.593.1L11.7,20.76h.81v2.867a1.937,1.937,0,0,0,.57,1.581,2.266,2.266,0,0,0,1.459.39,3.4,3.4,0,0,0,1.027-.146V23.9a2.427,2.427,0,0,1-.567.091c-.38,0-.558-.2-.558-.653V20.756h1.024v0ZM9.8,21.7c-.56-.21-.885-.374-.885-.636,0-.218.181-.344.511-.344a3.748,3.748,0,0,1,1.6.431l.237-1.448a4.47,4.47,0,0,0-1.933-.418,2.452,2.452,0,0,0-1.594.492A1.737,1.737,0,0,0,7.106,21.2c0,1.066.652,1.518,1.714,1.9.678.244.913.417.913.687,0,.255-.217.407-.629.407a4.392,4.392,0,0,1-1.842-.556L7.04,25.1a4.808,4.808,0,0,0,2.175.522,2.61,2.61,0,0,0,1.664-.48,1.783,1.783,0,0,0,.668-1.508c0-1.095-.667-1.55-1.744-1.93Z" transform="translate(-3.842 -10.585)" fill="#fff"/>
</svg>
