<svg id="emoji_9__yellow" data-name="emoji (9)_yellow" xmlns="http://www.w3.org/2000/svg" width="51.438" height="51.438" viewBox="0 0 51.438 51.438">
  <ellipse id="Ellipse_21" data-name="Ellipse 21" cx="25.719" cy="25.719" rx="25.719" ry="25.719" transform="translate(0 0)" fill="#ffc10e"/>
  <g id="Group_6354" data-name="Group 6354" transform="translate(7.818 12.808)">
    <path id="Path_59" data-name="Path 59" d="M105.8,229.059a16.065,16.065,0,0,1-15.869,15.868c-8.759.145-15.727-7.328-15.868-15.868a1.016,1.016,0,0,0-2.031,0,18.134,18.134,0,0,0,17.9,17.9c9.869.163,17.74-8.276,17.9-17.9a1.016,1.016,0,0,0-2.03,0Z" transform="translate(-72.034 -216.131)" fill="#333"/>
    <ellipse id="Ellipse_22" data-name="Ellipse 22" cx="4.039" cy="4.039" rx="4.039" ry="4.039" transform="translate(6.044)" fill="#333"/>
    <ellipse id="Ellipse_23" data-name="Ellipse 23" cx="4.039" cy="4.039" rx="4.039" ry="4.039" transform="translate(21.318)" fill="#333"/>
  </g>
</svg>
