<?xml version="1.0" encoding="iso-8859-1"?>
<!-- Generator: Adobe Illustrator 19.0.0, SVG Export Plug-In . SVG Version: 6.00 Build 0)  -->
<svg version="1.1" id="Capa_1" xmlns="http://www.w3.org/2000/svg" xmlns:xlink="http://www.w3.org/1999/xlink" x="0px" y="0px"
	 viewBox="0 0 511.999 511.999" style="enable-background:new 0 0 511.999 511.999;" xml:space="preserve">
<g>
	<g>
		<g>
			<path d="M500.12,221.546L477.181,191.7c-0.4-2.627-0.335-7.821-0.294-11.087c0.018-1.428,0.035-2.823,0.035-4.159v-37.757
				c0-24.669-16.771-44.825-43.768-52.599L395.422,75.23c-3.67-1.056-6.87-3.353-9.011-6.468l-22.119-32.158
				c-14.48-21.049-41.453-29.756-65.591-21.175L261.6,28.62c-3.613,1.283-7.589,1.283-11.199,0l-37.1-13.189
				c-24.139-8.581-51.112,0.125-65.591,21.175L125.59,68.764c-2.031,2.953-5.014,5.171-8.446,6.294l-39.306,8.258
				c-0.479,0.101-0.953,0.219-1.423,0.354c-25.016,7.205-41.971,29.942-41.337,55.368v38.764c0,1.348,0.028,2.76,0.058,4.212
				c0.06,2.875,0.156,7.572-0.336,9.494l-22.943,30.067c-15.815,20.298-15.808,48.581,0.021,68.872l22.98,29.93
				c0.421,1.819,0.341,6.418,0.281,9.833c-0.031,1.75-0.061,3.54-0.061,5.364v38.832c-0.575,23.832,16.165,43.545,43.768,51.494
				l37.732,10.867c3.67,1.057,6.87,3.353,9.012,6.468l22.118,32.157c10.748,15.627,28.378,24.451,46.628,24.45
				c6.333-0.001,12.744-1.064,18.964-3.275l37.099-13.189c3.613-1.283,7.589-1.283,11.199,0l37.1,13.189
				c6.221,2.212,12.629,3.275,18.964,3.275c18.248,0,35.88-8.825,46.627-24.45l22.12-32.158c2.142-3.113,5.342-5.41,9.011-6.467
				l37.732-10.867c24.534-7.065,44.574-35.13,43.759-61.283c-0.344-11.039-9.61-19.738-20.612-19.366
				c-11.039,0.344-19.71,9.571-19.366,20.612c0.24,7.703-7.949,19.615-14.851,21.602l-37.732,10.867
				c-12.546,3.614-23.519,11.51-30.896,22.235l-22.119,32.158c-4.228,6.148-12.139,8.679-19.239,6.156l-37.101-13.189
				c-12.248-4.354-25.74-4.355-37.992,0l-37.1,13.189c-7.101,2.524-15.01-0.007-19.24-6.156l-22.118-32.157
				c-7.376-10.725-18.349-18.622-30.896-22.235l-37.732-10.867c-1.545-0.446-15.087-4.567-14.851-12.163
				c0.007-0.207,0.01-0.415,0.01-0.623v-39.105c0-1.586,0.029-3.145,0.055-4.667c0.182-10.418,0.407-23.375-8.281-34.543
				l-23.295-30.338c-0.039-0.051-0.079-0.102-0.118-0.152c-4.555-5.815-4.555-13.937,0-19.751c0.051-0.066,0.103-0.133,0.154-0.2
				l23.28-30.509c8.729-11.246,8.443-25.069,8.254-34.227c-0.024-1.167-0.049-2.303-0.049-3.386v-39.042
				c0-0.207-0.003-0.415-0.01-0.623c-0.216-6.967,4.735-13.546,11.849-15.857l39.311-8.259c0.479-0.101,0.953-0.219,1.423-0.354
				c12.546-3.614,23.519-11.51,30.896-22.235l22.119-32.158c4.228-6.149,12.136-8.681,19.239-6.156l37.101,13.189
				c12.248,4.354,25.74,4.354,37.992,0l37.1-13.189c7.102-2.524,15.01,0.008,19.239,6.156l22.119,32.157
				c7.376,10.726,18.349,18.623,30.896,22.236l37.732,10.867c5.543,1.596,14.841,5.559,14.841,14.164v37.757
				c0,1.175-0.015,2.401-0.031,3.656c-0.147,11.642-0.328,26.02,8.788,36.243l22.77,29.626c0.037,0.048,0.075,0.097,0.112,0.145
				c4.555,5.815,4.555,13.936,0,19.751c-6.812,8.695-5.283,21.266,3.412,28.076c8.696,6.81,21.264,5.284,28.076-3.413
				C515.958,270.235,515.98,241.88,500.12,221.546z"/>
			<path d="M194.303,373.726c3.024,1.635,6.281,2.41,9.492,2.41c7.109,0,13.993-3.801,17.61-10.493l108.1-199.986
				c5.253-9.715,1.634-21.85-8.082-27.102c-9.717-5.254-21.852-1.633-27.102,8.083l-108.1,199.986
				C180.968,356.339,184.587,368.474,194.303,373.726z"/>
			<path d="M223.001,186.145c0-27.568-22.428-49.997-49.996-49.997c-27.568,0-49.997,22.428-49.997,49.997
				s22.428,49.996,49.997,49.996C200.573,236.141,223.001,213.713,223.001,186.145z M173.005,196.144
				c-5.514,0-9.999-4.486-9.999-9.999s4.486-9.999,9.999-9.999c5.514,0,9.999,4.486,9.999,9.999S178.518,196.144,173.005,196.144z"
				/>
			<path d="M337.993,376.131c27.568,0,49.997-22.428,49.997-49.997s-22.428-49.996-49.997-49.996
				c-27.568,0-49.996,22.428-49.996,49.996S310.425,376.131,337.993,376.131z M337.993,316.136c5.514,0,9.999,4.486,9.999,9.999
				s-4.486,9.999-9.999,9.999c-5.514,0-9.999-4.486-9.999-9.999S332.48,316.136,337.993,316.136z"/>
		</g>
	</g>
</g>
<g>
</g>
<g>
</g>
<g>
</g>
<g>
</g>
<g>
</g>
<g>
</g>
<g>
</g>
<g>
</g>
<g>
</g>
<g>
</g>
<g>
</g>
<g>
</g>
<g>
</g>
<g>
</g>
<g>
</g>
</svg>
